<svg xmlns="http://www.w3.org/2000/svg" viewBox="0 0 64 64" width="40" height="40"><rect width="64" height="64" rx="8" fill="#1DA1F2"/><path d="M48 20c-1.4.6-3 .9-4.6 1 1.7-1 3-2.5 3.6-4.4-1.6.9-3.4 1.6-5.3 2-1.6-1.7-4-2.8-6.6-2.8-5 0-9 4-9 9 0 .7.1 1.3.2 1.9-7.5-.4-14.2-4-18.7-9.4-.8 1.4-1.2 3-1.2 4.8 0 3.2 1.6 6 4.1 7.6-1.4 0-2.7-.4-3.9-1v.1c0 4.6 3.3 8.4 7.6 9.3-1.2.3-2.5.5-3.8.5-.9 0-1.8-.1-2.6-.3 1.8 5.6 7 9.6 13.1 9.7-4.8 3.8-10.8 6-17.3 6-.9 0-1.8 0-2.7-.1C22 56 28.2 58 35 58c12.8 0 22.2-10 22.2-22.2v-1C58 24 54.4 22 51 20.9 52.2 20.3 53.3 19.6 54 18.8c-1 .6-2.2 1-3.4 1.2z" fill="#fff"/></svg>